<svg width="24" height="24" viewBox="0 0 24 24" fill="none" xmlns="http://www.w3.org/2000/svg">
<path id="Vector" d="M6.96635 0C3.12981 0 0 3.12878 0 6.96406V17.0281C0 20.8633 3.12981 23.9921 6.96635 23.9921H17.0337C20.8702 23.9921 24 20.8633 24 17.0281V6.96406C24 3.12878 20.8702 0 17.0337 0H6.96635ZM6.96635 1.84555H17.0337C19.8714 1.84555 22.1538 4.12365 22.1538 6.96406V17.0281C22.1538 19.8649 19.875 22.1466 17.0337 22.1466H6.96635C4.12861 22.1466 1.84615 19.8685 1.84615 17.0281V6.96406C1.84615 4.12725 4.125 1.84555 6.96635 1.84555ZM18.9231 3.6911C18.1587 3.6911 17.5385 4.31108 17.5385 5.07526C17.5385 5.83943 18.1587 6.45942 18.9231 6.45942C19.6875 6.45942 20.3077 5.83943 20.3077 5.07526C20.3077 4.31108 19.6875 3.6911 18.9231 3.6911ZM12 5.53664C8.44111 5.53664 5.53846 8.43833 5.53846 11.9961C5.53846 15.5538 8.44111 18.4555 12 18.4555C15.5589 18.4555 18.4615 15.5538 18.4615 11.9961C18.4615 8.43833 15.5589 5.53664 12 5.53664ZM12 7.38219C14.5601 7.38219 16.6154 9.4368 16.6154 11.9961C16.6154 14.5553 14.5601 16.6099 12 16.6099C9.4399 16.6099 7.38462 14.5553 7.38462 11.9961C7.38462 9.4368 9.4399 7.38219 12 7.38219Z" fill="white"/>
</svg>
